<svg width="20" height="20" viewBox="0 0 20 20" fill="none" xmlns="http://www.w3.org/2000/svg">
<circle opacity="0.5" cx="10" cy="10" r="10" fill="green"/>
<path opacity="0.5" d="M13.5164 12.5305L10.9859 10L13.5164 7.46948L12.5305 6.48357L10 9.01408L7.46948 6.48357L6.48357 7.46948L9.01408 10L6.48357 12.5305L7.46948 13.5164L10 10.9859L12.5305 13.5164L13.5164 12.5305ZM5.03756 5.07042C6.41784 3.69014 8.07199 3 10 3C11.928 3 13.5712 3.69014 14.9296 5.07042C16.3099 6.4288 17 8.07199 17 10C17 11.928 16.3099 13.5822 14.9296 14.9624C13.5712 16.3208 11.928 17 10 17C8.07199 17 6.41784 16.3208 5.03756 14.9624C3.67919 13.5822 3 11.928 3 10C3 8.07199 3.67919 6.4288 5.03756 5.07042Z" fill="white"/>
</svg>
