<svg width="24" height="24" viewBox="0 0 24 24" fill="none" xmlns="http://www.w3.org/2000/svg">
<path fill-rule="evenodd" clip-rule="evenodd" d="M17.25 21H6.75C4.67925 21 3 19.3207 3 17.25V6.75C3 4.67925 4.67925 3 6.75 3H17.25C19.3215 3 21 4.67925 21 6.75V17.25C21 19.3207 19.3215 21 17.25 21ZM15.192 17.139C15.3533 17.2537 15.5602 17.2822 15.7455 17.2118C15.93 17.142 16.0665 16.9838 16.1077 16.7917C16.542 14.7502 17.5965 9.58125 17.9918 7.72425C18.021 7.584 17.9715 7.4385 17.862 7.34475C17.7517 7.25175 17.5988 7.22475 17.463 7.275C15.3668 8.0505 8.91 10.473 6.27075 11.4503C6.1035 11.5118 5.99475 11.673 6 11.85C6.006 12.0262 6.12525 12.18 6.29625 12.2318C7.47975 12.585 9.03375 13.0778 9.03375 13.0778C9.03375 13.0778 9.759 15.2708 10.1378 16.3853C10.185 16.5255 10.2952 16.6358 10.4392 16.6733C10.584 16.7108 10.737 16.6718 10.845 16.5697C11.4532 15.996 12.393 15.1088 12.393 15.1088C12.393 15.1088 14.1788 16.4182 15.192 17.139ZM9.687 12.801L10.5262 15.57L10.713 13.8165C10.713 13.8165 13.956 10.8915 15.8055 9.2235C15.8595 9.17475 15.867 9.093 15.822 9.03525C15.777 8.9775 15.6952 8.964 15.6337 9.003C13.491 10.3717 9.687 12.801 9.687 12.801Z" fill="#0088CC"/>
</svg>
