<svg width="24" height="24" viewBox="0 0 24 24" fill="none" xmlns="http://www.w3.org/2000/svg">
<path fill-rule="evenodd" clip-rule="evenodd" d="M17.25 21H6.75C4.67925 21 3 19.3207 3 17.25V6.75C3 4.67925 4.67925 3 6.75 3H17.25C19.3215 3 21 4.67925 21 6.75V17.25C21 19.3207 19.3215 21 17.25 21ZM16.6455 7.65675C16.3313 7.36725 15.06 6.44475 12.2303 6.432C12.2303 6.432 8.892 6.231 7.26525 7.7235C6.36 8.6295 6.04125 9.954 6.0075 11.598C5.97375 13.242 5.93025 16.3215 8.89875 17.1562L8.90175 17.157L8.90025 18.4313C8.90025 18.4313 8.8815 18.9473 9.2205 19.0522C9.6315 19.1798 9.873 18.7875 10.2653 18.3652C10.4805 18.1335 10.7775 17.7922 11.0017 17.532C13.032 17.7022 14.5935 17.3123 14.7712 17.2545C15.1815 17.121 17.5005 16.824 17.8778 13.7452C18.267 10.5697 17.6895 8.562 16.6455 7.65675ZM16.989 13.5157C16.6702 16.0868 14.7893 16.2495 14.4427 16.3605C14.295 16.4077 12.9233 16.749 11.199 16.6365C11.199 16.6365 9.9135 18.1868 9.51225 18.5903C9.45 18.6533 9.3765 18.6788 9.327 18.6667C9.258 18.6495 9.2385 18.5677 9.24 18.4485L9.2505 16.3305C6.7395 15.633 6.88575 13.0118 6.91425 11.6392C6.94275 10.2667 7.20075 9.14175 7.9665 8.38575C9.34275 7.13925 12.1778 7.32525 12.1778 7.32525C14.5718 7.33575 15.7192 8.05725 15.9855 8.29875C16.8682 9.05475 17.3183 10.8645 16.989 13.5157ZM12.4703 13.6702C12.4703 13.6702 12.6953 13.6898 12.816 13.5398L13.0522 13.2428C13.1663 13.0957 13.4415 13.0013 13.7108 13.1512C14.067 13.3523 14.5282 13.6687 14.844 13.9635C15.018 14.1105 15.0585 14.3265 14.94 14.5545L14.9385 14.559C14.817 14.775 14.6535 14.9767 14.4472 15.1642L14.4427 15.168C14.211 15.3615 13.944 15.474 13.6583 15.381L13.653 15.3735C13.1407 15.2287 11.9115 14.6017 11.1278 13.977C9.846 12.9653 8.9355 11.2972 8.68275 10.4033L8.67525 10.398C8.58225 10.1115 8.6955 9.8445 8.88825 9.6135L8.892 9.609C9.08025 9.40275 9.282 9.24 9.49725 9.11775L9.50175 9.117C9.72975 8.99775 9.94575 9.03825 10.0927 9.21225C10.2862 9.4125 10.65 9.89325 10.905 10.3455C11.055 10.6147 10.9613 10.89 10.8135 11.004L10.5165 11.2403C10.3665 11.361 10.386 11.586 10.386 11.586C10.386 11.586 10.8255 13.2502 12.4703 13.6702ZM15.0585 12.2902C15.147 12.2895 15.2183 12.2175 15.2175 12.129C15.2093 11.076 14.8868 10.2308 14.259 9.618C13.6328 9.0075 12.8438 8.69475 11.9145 8.688H11.9137C11.826 8.688 11.754 8.7585 11.7533 8.847C11.7533 8.9355 11.8238 9.0075 11.9123 9.00825C12.756 9.01425 13.4707 9.29625 14.0355 9.8475C14.6003 10.398 14.8897 11.1667 14.8973 12.132C14.898 12.2197 14.9692 12.2902 15.057 12.2902H15.0585ZM14.2162 11.9618H14.2125C14.124 11.9595 14.0542 11.8868 14.0565 11.7983C14.0685 11.2507 13.9125 10.8082 13.5787 10.4438C13.2465 10.0807 12.7905 9.882 12.1838 9.83775C12.096 9.831 12.0293 9.7545 12.036 9.66675C12.0428 9.57825 12.1193 9.51225 12.207 9.51825C12.8895 9.5685 13.4303 9.807 13.815 10.2277C14.2013 10.6493 14.3903 11.1803 14.376 11.805C14.3745 11.8927 14.3033 11.9618 14.2162 11.9618ZM13.395 11.6865C13.3102 11.6865 13.2397 11.6198 13.2353 11.5343C13.2083 10.9913 12.9525 10.725 12.4298 10.6972C12.342 10.692 12.2737 10.617 12.279 10.5285C12.2835 10.4408 12.3585 10.3725 12.447 10.3777C13.1362 10.4145 13.5195 10.809 13.5548 11.5185C13.5592 11.607 13.4917 11.682 13.4032 11.6865H13.395Z" fill="#665CAC"/>
</svg>
