<svg width="24" height="24" viewBox="0 0 24 24" fill="none" xmlns="http://www.w3.org/2000/svg">
<path d="M17.25 3H6.75C4.67925 3 3 4.67925 3 6.75V17.25C3 19.3207 4.67925 21 6.75 21H17.25C19.3215 21 21 19.3207 21 17.25V6.75C21 4.67925 19.3215 3 17.25 3ZM17.4375 15.747H15.837C14.9332 15.747 14.7803 15.2318 14.0363 14.4878C13.3635 13.815 12.99 14.331 13.0057 15.2887C13.0103 15.543 12.885 15.747 12.5812 15.747C11.6332 15.747 10.2712 15.8805 8.89275 14.3925C7.4805 12.8678 6 9.80925 6 9.50775C6 9.33 6.147 9.24975 6.393 9.24975H8.0205C8.451 9.24975 8.48775 9.46275 8.60775 9.7365C9.108 10.8773 10.3065 13.167 10.6252 11.889C10.8082 11.1555 10.8832 9.45525 10.098 9.309C9.6525 9.2265 10.437 8.7495 11.574 8.7495C11.8568 8.7495 12.1635 8.78025 12.4777 8.85225C13.0545 8.9865 13.056 9.2445 13.0485 9.62175C13.0192 11.049 12.8467 12.0098 13.2232 12.252C13.5825 12.4845 14.5275 10.9643 15.0255 9.79125C15.1628 9.4665 15.1897 9.24975 15.576 9.24975H17.5665C18.609 9.24975 17.43 10.7475 16.5292 11.9175C15.8032 12.8588 15.8422 12.8775 16.686 13.6605C17.2882 14.2185 17.9985 14.9805 17.9985 15.4125C18 15.6165 17.841 15.747 17.4375 15.747Z" fill="#4D7198"/>
</svg>
