<svg width="24" height="24" viewBox="0 0 24 24" fill="none" xmlns="http://www.w3.org/2000/svg">
<path d="M12.027 7.00425C9.30075 7.00425 7.08375 9.22125 7.08225 11.946C7.0815 13.0583 7.40775 13.8915 7.95525 14.763L7.45575 16.587L9.32625 16.0965C10.164 16.5938 10.9642 16.8923 12.0225 16.8923C14.7465 16.8923 16.9657 14.6753 16.9665 11.9497C16.9688 9.219 14.76 7.005 12.027 7.00425ZM14.934 14.0715C14.8102 14.4187 14.2162 14.7353 13.9312 14.778C13.6755 14.8163 13.3515 14.832 12.9952 14.7195C12.7793 14.6512 12.5025 14.5597 12.1485 14.4067C10.6582 13.7632 9.68475 12.2625 9.6105 12.1635C9.53625 12.0645 9.00375 11.358 9.00375 10.6267C9.00375 9.8955 9.38775 9.53625 9.5235 9.387C9.66 9.237 9.8205 9.1995 9.9195 9.1995L10.2045 9.20475C10.296 9.20925 10.4183 9.17025 10.539 9.45975C10.6628 9.7575 10.9598 10.4887 10.9973 10.563C11.034 10.6372 11.0595 10.7242 11.0092 10.8232C10.9597 10.9222 10.935 10.9845 10.8608 11.0707L10.638 11.331C10.5637 11.4052 10.4865 11.4855 10.5728 11.634C10.6597 11.7825 10.9575 12.2692 11.3993 12.663C11.967 13.1692 12.4455 13.326 12.594 13.4002C12.7425 13.4745 12.8295 13.4625 12.9157 13.3628C13.0027 13.2638 13.287 12.9292 13.386 12.78C13.485 12.6307 13.584 12.6562 13.7205 12.7057C13.857 12.7552 14.5875 13.1145 14.736 13.1895C14.8845 13.2638 14.9835 13.3013 15.021 13.3628C15.0577 13.4265 15.0577 13.7242 14.934 14.0715ZM17.25 3H6.75C4.67925 3 3 4.67925 3 6.75V17.25C3 19.3207 4.67925 21 6.75 21H17.25C19.3215 21 21 19.3207 21 17.25V6.75C21 4.67925 19.3215 3 17.25 3ZM12.0247 17.8965C11.0295 17.8965 10.0493 17.6467 9.18075 17.1727L6.0285 18L6.87225 14.919C6.35175 14.0175 6.078 12.9945 6.07875 11.946C6.08025 8.667 8.74725 6 12.0247 6C13.6155 6.00075 15.1088 6.62025 16.2315 7.74375C17.3542 8.86725 17.9722 10.362 17.9715 11.9505C17.97 15.2295 15.3022 17.8965 12.0247 17.8965Z" fill="#36D16A"/>
</svg>
